<svg id="Слой_1" data-name="Слой 1" xmlns="http://www.w3.org/2000/svg" viewBox="0 0 452.5 84.05"><defs><style>.cls-1{fill:#fff;}.cls-2{fill:#49938b;}</style></defs><title>gu6</title><path id="GUARDO" class="cls-1" d="M155.86,39.15h25a32.45,32.45,0,0,1-1.07,11.18,25.16,25.16,0,0,1-4.73,9.21,22.41,22.41,0,0,1-8.1,6.21A26.52,26.52,0,0,1,155.79,68a29.37,29.37,0,0,1-14-3.24,24.15,24.15,0,0,1-9.59-9.08,26,26,0,0,1-3.48-13.62,25.68,25.68,0,0,1,2.07-10.56,22.73,22.73,0,0,1,5.83-8,26.08,26.08,0,0,1,8.8-5.07,32.84,32.84,0,0,1,10.9-1.76,26.89,26.89,0,0,1,9.45,1.55,24.92,24.92,0,0,1,7.31,4.21,30.83,30.83,0,0,1,5.52,6l-12.28,5.86a14,14,0,0,0-3.79-4.41,10,10,0,0,0-6.21-1.8,14.25,14.25,0,0,0-6.8,1.63,12.16,12.16,0,0,0-4.9,4.72A14.59,14.59,0,0,0,142.79,42q0,6.69,3.76,10.59a13,13,0,0,0,9.76,3.9,12,12,0,0,0,7.46-2,11.72,11.72,0,0,0,3.93-5.28H155.86ZM204.38,17.9V49.22a8,8,0,0,0,1.69,5.35,7.69,7.69,0,0,0,10.42,0,8.13,8.13,0,0,0,1.69-5.35V17.9h13.38V50.33q0,6.48-2.76,10.49a16.09,16.09,0,0,1-7.35,5.86,28.76,28.76,0,0,1-20.39,0,16.12,16.12,0,0,1-7.41-5.86q-2.81-4-2.8-10.49V17.9ZM254.1,66.2H238.78l26.43-51.54L291.5,66.2H276.32l-4.07-7.73H258Zm15.8-17.66-4.69-10.77-4.76,10.77ZM312.17,66.2H298.79V17.9h19a25.81,25.81,0,0,1,10.94,2,14.08,14.08,0,0,1,6.41,5.7,16.59,16.59,0,0,1,2.15,8.4A16.5,16.5,0,0,1,335,42.7a14.25,14.25,0,0,1-6.93,5.77L340.19,66.2H324.52l-9.45-15.94h-2.9V66.2ZM316.66,40a7.55,7.55,0,0,0,4.93-1.41,4.9,4.9,0,0,0,1.69-4,4.84,4.84,0,0,0-1.69-4,7.68,7.68,0,0,0-4.93-1.38h-4.49V40Zm30.89,26.2V17.9h18.07a31.8,31.8,0,0,1,14.08,2.9,21.38,21.38,0,0,1,9.18,8.31,24.84,24.84,0,0,1,3.24,12.94,24.87,24.87,0,0,1-3.24,13,21.32,21.32,0,0,1-9.18,8.31,31.8,31.8,0,0,1-14.08,2.9Zm17.52-11.73a19.27,19.27,0,0,0,6.21-1,9.62,9.62,0,0,0,4.87-3.69c1.26-1.8,1.9-4.37,1.9-7.73s-.64-5.93-1.9-7.73a9.67,9.67,0,0,0-4.87-3.69,19.27,19.27,0,0,0-6.21-1h-3.59V54.47Zm36.48-22.8a23.14,23.14,0,0,1,5.62-8,26,26,0,0,1,8.42-5.18A28.91,28.91,0,0,1,426,16.67a29.71,29.71,0,0,1,10.56,1.82,25.16,25.16,0,0,1,8.38,5.18,23.67,23.67,0,0,1,5.56,8,26.09,26.09,0,0,1,2,10.39,27.47,27.47,0,0,1-1.93,10.41,24.15,24.15,0,0,1-5.49,8.25,24.59,24.59,0,0,1-8.42,5.38,30.78,30.78,0,0,1-21.28,0A24.82,24.82,0,0,1,407,60.72a23.94,23.94,0,0,1-5.48-8.24,27.73,27.73,0,0,1-1.94-10.42,26.1,26.1,0,0,1,2-10.4Zm15.52,19.91a12.67,12.67,0,0,0,17.8,0,13.63,13.63,0,0,0,3.31-9.53A13.82,13.82,0,0,0,435,32.5q-3.19-3.63-9-3.62a11.49,11.49,0,0,0-8.9,3.62,13.64,13.64,0,0,0-3.31,9.56,13.66,13.66,0,0,0,3.31,9.51Z" transform="translate(0 0)"/><path id="Forma_1" data-name="Forma 1" class="cls-2" d="M31.08,35.7,51.24.84A68.09,68.09,0,0,0,42,0,39.51,39.51,0,0,0,15.54,9.66L31.08,36.12ZM81.9,29.4A40.59,40.59,0,0,0,56.7,2.94L41.58,29.4Zm1.26,4.2H51.66l1.26,2.1L73.08,70.56A43,43,0,0,0,84,42,51.43,51.43,0,0,0,83.16,33.6ZM27.3,42,10.92,13.44A43,43,0,0,0,0,42a51.43,51.43,0,0,0,.84,8.4h31.5ZM2.1,54.6A40.59,40.59,0,0,0,27.3,81.06L42.84,54.6Zm47,0L32.76,83.16A33,33,0,0,0,42,84a39.51,39.51,0,0,0,26.46-9.66L52.92,47.88Z" transform="translate(0 0)"/></svg>