<svg id="Слой_1" data-name="Слой 1" xmlns="http://www.w3.org/2000/svg" viewBox="0 0 472.98 85.01"><defs><style>.cls-1{fill:#f7b738;}.cls-2{fill:#fff;}</style></defs><title>gua</title><circle id="Эллипс_1" data-name="Эллипс 1" class="cls-1" cx="466.48" cy="60.48" r="6.5"/><path id="GUARDO" class="cls-2" d="M155.86,40.15h25a32.45,32.45,0,0,1-1.07,11.18,25.16,25.16,0,0,1-4.73,9.21,22.41,22.41,0,0,1-8.1,6.21A26.55,26.55,0,0,1,155.79,69a29.37,29.37,0,0,1-14-3.24,24.15,24.15,0,0,1-9.59-9.08,26,26,0,0,1-3.48-13.62,25.71,25.71,0,0,1,2.07-10.56,22.73,22.73,0,0,1,5.83-8,26.08,26.08,0,0,1,8.8-5.07,32.8,32.8,0,0,1,10.9-1.76,26.93,26.93,0,0,1,9.45,1.55,24.92,24.92,0,0,1,7.31,4.21,30.74,30.74,0,0,1,5.52,6l-12.28,5.86a14,14,0,0,0-3.79-4.41,10,10,0,0,0-6.21-1.8,14.22,14.22,0,0,0-6.8,1.63,12.16,12.16,0,0,0-4.9,4.72,14.59,14.59,0,0,0-1.83,7.59q0,6.69,3.76,10.59a13,13,0,0,0,9.76,3.9,12.06,12.06,0,0,0,7.46-2,11.72,11.72,0,0,0,3.93-5.28H155.86ZM204.38,18.9V50.22a8,8,0,0,0,1.69,5.35,7.69,7.69,0,0,0,10.42,0,8.11,8.11,0,0,0,1.69-5.35V18.9h13.38V51.33q0,6.48-2.76,10.49a16.09,16.09,0,0,1-7.35,5.86,28.76,28.76,0,0,1-20.39,0,16.12,16.12,0,0,1-7.41-5.86q-2.81-4-2.8-10.49V18.9ZM254.1,67.2H238.78l26.43-51.54L291.5,67.2H276.32l-4.07-7.73H258Zm15.8-17.66-4.69-10.77-4.76,10.77ZM312.17,67.2H298.79V18.9h19a25.84,25.84,0,0,1,10.94,2,14.08,14.08,0,0,1,6.41,5.7A16.51,16.51,0,0,1,337.29,35,16.54,16.54,0,0,1,335,43.7a14.25,14.25,0,0,1-6.93,5.77L340.19,67.2H324.52l-9.45-15.94h-2.9V67.2ZM316.66,41a7.55,7.55,0,0,0,4.93-1.41,4.9,4.9,0,0,0,1.69-4,4.84,4.84,0,0,0-1.69-4,7.62,7.62,0,0,0-4.93-1.38h-4.49V41ZM347.55,67.2V18.9h18.07a31.77,31.77,0,0,1,14.08,2.9,21.38,21.38,0,0,1,9.18,8.31,24.84,24.84,0,0,1,3.24,12.94A24.81,24.81,0,0,1,388.88,56a21.32,21.32,0,0,1-9.18,8.31,31.77,31.77,0,0,1-14.08,2.9Zm17.52-11.73a19.27,19.27,0,0,0,6.21-1,9.62,9.62,0,0,0,4.87-3.69c1.26-1.8,1.9-4.37,1.9-7.73s-.64-5.93-1.9-7.73a9.67,9.67,0,0,0-4.87-3.69,19.27,19.27,0,0,0-6.21-1h-3.59V55.47Zm36.48-22.8a23.14,23.14,0,0,1,5.62-8,26,26,0,0,1,8.42-5.18A28.75,28.75,0,0,1,426,17.67a29.71,29.71,0,0,1,10.56,1.82,25.16,25.16,0,0,1,8.38,5.18,23.67,23.67,0,0,1,5.56,8,26.06,26.06,0,0,1,2,10.39,27.47,27.47,0,0,1-1.93,10.41,24.15,24.15,0,0,1-5.49,8.25,24.59,24.59,0,0,1-8.42,5.38,30.78,30.78,0,0,1-21.28,0A24.71,24.71,0,0,1,407,61.72a24,24,0,0,1-5.48-8.24,27.57,27.57,0,0,1-1.94-10.42,26.11,26.11,0,0,1,2-10.4Zm15.52,19.91a12.67,12.67,0,0,0,17.8,0,13.61,13.61,0,0,0,3.31-9.53A13.85,13.85,0,0,0,435,33.5q-3.2-3.63-9-3.62a11.47,11.47,0,0,0-8.9,3.62,13.63,13.63,0,0,0-3.31,9.56,13.67,13.67,0,0,0,3.31,9.51Z" transform="translate(-1.02 -1.02)"/><path id="Forma_1" data-name="Forma 1" class="cls-1" d="M48.06,79.07c-4.7-5.14-7-9.5-7-13.34v-.22l0-.22c0-.2.3-2.18.66-4.75l-4.53-1.29L36.88,55c6.62-4,9.9-12.64,9.1-20.91-4.24,3.63-10.74,5.08-16.37,5.08S17.47,37.7,13.24,34.07c-.85,8.6,2.71,17,9.1,20.91L22,59.25,4.72,64.17A5,5,0,0,0,1.06,69.7l1.7,12.2a4.67,4.67,0,0,0,4.65,4H51.8a4.67,4.67,0,0,0,2.57-.75A78.45,78.45,0,0,1,48.06,79.07ZM8.83,23.2l4.1,2.7c-.82,5.41,7,9.93,16.68,9.93S47.1,31.31,46.29,25.9l4.09-2.7a2.38,2.38,0,0,0,1-2.59L49,11.8a4.11,4.11,0,0,0-2.14-2.61L31.51,1.47a4.26,4.26,0,0,0-3.81,0L12.35,9.18A4.14,4.14,0,0,0,10.2,11.8L7.84,20.61A2.38,2.38,0,0,0,8.83,23.2ZM24.65,10.67a1,1,0,0,1,1-.84h8a1,1,0,0,1,1,.85l.59,4.37c0,2.19-3.53,5.2-5,6.36a1,1,0,0,1-1.25,0c-1.46-1.16-5-4.17-5-6.36Zm51.94,39C76.05,46.76,70,46,61.72,46s-14.32.76-14.86,3.67c-.75,4-2.42,16.06-2.42,16.06C44.44,72.55,55.61,82,60,85.43a2.81,2.81,0,0,0,3.47,0C67.84,82,79,72.55,79,65.73c0,0-1.67-12.06-2.41-16.06ZM70.88,61a1.4,1.4,0,0,1-.57-.13l-3.15,3.45L67.64,69a1.32,1.32,0,1,1-1.54,1.3.57.57,0,0,1,0-.13l-4.39-1.9L57.39,70.1a1.35,1.35,0,0,1-2.67.37A1.36,1.36,0,0,1,55.81,69l.47-4.62-3.14-3.46a1.29,1.29,0,0,1-.58.13,1.32,1.32,0,0,1-1.32-1.32,1.33,1.33,0,0,1,1.32-1.33h0a1.34,1.34,0,0,1,1.17.68l4.63-1,2.36-4a1.32,1.32,0,0,1-.34-.89,1.35,1.35,0,0,1,2.69,0h0a1.33,1.33,0,0,1-.35.89l2.36,4,4.63,1a1.35,1.35,0,0,1,1.17-.68A1.33,1.33,0,0,1,71,61Z" transform="translate(-1.02 -1.02)"/></svg>