<svg id="Слой_1" data-name="Слой 1" xmlns="http://www.w3.org/2000/svg" viewBox="0 0 473.98 84.01"><defs><style>.cls-1{fill:#713afc;}.cls-2{fill:#fff;}</style></defs><title>hack</title><circle id="Эллипс_1" data-name="Эллипс 1" class="cls-1" cx="467.48" cy="55.51" r="6.5"/><path id="Forma_1" data-name="Forma 1" class="cls-1" d="M64,26.72c-3.92-4.62-13.91-7.6-25.45-7.6S17.11,22,13.14,26.62a7.4,7.4,0,0,0-2,4.86c0,1.72.72,4.27,4,6.69h0L37.14,55a2.52,2.52,0,0,0,3.06,0L61.8,38h0c3.15-2.38,3.84-4.87,3.84-6.55A7.32,7.32,0,0,0,64,26.72ZM38.51,33.94a7.4,7.4,0,0,1-7.45-7V24.53A58,58,0,0,1,38.51,24a56.12,56.12,0,0,1,7.44.49V26.8A7.41,7.41,0,0,1,38.51,33.94ZM48.82,5.18A12.32,12.32,0,0,0,38.79,0,11.86,11.86,0,0,0,28.7,5L20.29,16.88a58,58,0,0,1,18.22-2.71A57.63,57.63,0,0,1,57,17ZM11.17,41.25a22.37,22.37,0,0,0-4.56,7.59l-6,18.84A12.49,12.49,0,0,0,12.43,84h3.71V58.15a7.46,7.46,0,0,1,7.34-7.4C22.39,49.92,12.21,42.15,11.17,41.25ZM53.42,55.69H47.61L43.45,59a7.49,7.49,0,0,1-9.19.06l-4.35-3.34H23.6a2.49,2.49,0,0,0-2.49,2.47V84H55.9V58.15a2.48,2.48,0,0,0-2.48-2.47ZM43.48,68.53H33.54a2.47,2.47,0,1,1,0-4.94h9.94a2.47,2.47,0,1,1,0,4.94Zm32.92-.85-6-18.9a22.22,22.22,0,0,0-4.52-7.52c-.79.68-11.22,8.88-12,9.52a7.42,7.42,0,0,1,7,7.38V84h3.7A12.48,12.48,0,0,0,77,71.49,12.35,12.35,0,0,0,76.4,67.68Z" transform="translate(0 -0.01)"/><path class="cls-2" d="M132.86,23.22V36.61h14.91V23.22h10.47V61H147.77V46H132.86V61H122.39V23.22Z" transform="translate(0 -0.01)"/><path class="cls-2" d="M177.68,61h-12l20.68-40.34L207,61H195.07L191.89,55H180.76ZM190.05,47.2l-3.67-8.43-3.73,8.43Z" transform="translate(0 -0.01)"/><path class="cls-2" d="M223.66,47.52a9.42,9.42,0,0,0,3.81,3.38,11.84,11.84,0,0,0,5.24,1.16,12.93,12.93,0,0,0,6.59-1.52,21.24,21.24,0,0,0,4.42-3.34V58.32A22.09,22.09,0,0,1,238.78,61,19.36,19.36,0,0,1,232,62a23.76,23.76,0,0,1-11.09-2.48,18.57,18.57,0,0,1-7.48-6.94,19.76,19.76,0,0,1-2.7-10.45,19.76,19.76,0,0,1,2.7-10.45,18.57,18.57,0,0,1,7.48-6.94A23.76,23.76,0,0,1,232,22.25a19.36,19.36,0,0,1,6.83,1,22.09,22.09,0,0,1,4.94,2.65V37a19.73,19.73,0,0,0-4.42-3.37,13.14,13.14,0,0,0-6.59-1.49,11.71,11.71,0,0,0-5.24,1.17,9.33,9.33,0,0,0-3.81,3.37,9.79,9.79,0,0,0-1.43,5.4A9.77,9.77,0,0,0,223.66,47.52Z" transform="translate(0 -0.01)"/><path class="cls-2" d="M290.11,23.22l-15,17.71L291,61H278.23L265.65,45.14V61h-11V23.22h11V37.64l12.2-14.42Z" transform="translate(0 -0.01)"/><path class="cls-2" d="M296.27,23.22H328v9.4H317.38V61H306.85V32.62H296.27Z" transform="translate(0 -0.01)"/><path class="cls-2" d="M345.73,52.49h16.2V61H335.69V23.22h26.24v8.53h-16.2v5.51h15.12v8.21H345.73Z" transform="translate(0 -0.01)"/><path class="cls-2" d="M383.72,47.52a9.3,9.3,0,0,0,3.81,3.38,11.77,11.77,0,0,0,5.23,1.16,12.91,12.91,0,0,0,6.59-1.52,21.59,21.59,0,0,0,4.43-3.34V58.32A22.31,22.31,0,0,1,398.84,61,19.39,19.39,0,0,1,392,62a23.8,23.8,0,0,1-11.1-2.48,18.57,18.57,0,0,1-7.48-6.94,19.76,19.76,0,0,1-2.7-10.45,19.76,19.76,0,0,1,2.7-10.45,18.57,18.57,0,0,1,7.48-6.94A23.8,23.8,0,0,1,392,22.25a19.39,19.39,0,0,1,6.83,1,22.31,22.31,0,0,1,4.94,2.65V37a20,20,0,0,0-4.43-3.37,13.12,13.12,0,0,0-6.59-1.49,11.64,11.64,0,0,0-5.23,1.17,9.2,9.2,0,0,0-3.81,3.37,9.71,9.71,0,0,0-1.43,5.4A9.69,9.69,0,0,0,383.72,47.52Z" transform="translate(0 -0.01)"/><path class="cls-2" d="M425.22,23.22V36.61h14.9V23.22H450.6V61H440.12V46h-14.9V61H414.74V23.22Z" transform="translate(0 -0.01)"/></svg>