<?xml version="1.0" encoding="utf-8"?>
<!-- Generator: Adobe Illustrator 21.1.0, SVG Export Plug-In . SVG Version: 6.00 Build 0)  -->
<svg version="1.1" id="Слой_1" xmlns="http://www.w3.org/2000/svg" xmlns:xlink="http://www.w3.org/1999/xlink" x="0px" y="0px"
	 viewBox="0 0 132.9 24.3" style="enable-background:new 0 0 132.9 24.3;" xml:space="preserve">
<style type="text/css">
	.st0{fill:#216FFF;}
	.st1{fill:#FFFFFF;}
</style>
<title>logo</title>
<g>
	<path class="st0" d="M125.3,21.8c0-0.7,0.2-1.3,0.7-1.8c1.1-0.9,2.6-0.9,3.7,0c0.5,0.4,0.8,1.1,0.7,1.8c0,0.7-0.2,1.3-0.7,1.7
		c-1.1,0.9-2.6,0.9-3.7,0C125.5,23.1,125.2,22.4,125.3,21.8z"/>
</g>
<g>
	<path class="st1" d="M4.7,16.2c0.7,1.3,1.5,2.3,2.3,2.9s1.8,1,2.9,1c1.8,0,2.6-0.7,2.6-2.1c0-0.6-0.2-1.1-0.6-1.5
		c-0.4-0.4-0.9-0.7-1.6-1S9,15,8.2,14.6c-0.5-0.2-1.1-0.5-1.8-0.8S5.1,13,4.4,12.5s-1.1-1.2-1.5-1.9C2.5,9.8,2.3,8.9,2.3,7.9
		c0-1.2,0.3-2.3,1-3.2C3.9,3.8,4.8,3.1,6,2.6c1.2-0.5,2.5-0.8,4-0.8c1.5,0,2.9,0.2,3.9,0.7s1.9,1.1,2.6,1.8c0.7,0.7,1.1,1.5,1.4,2.2
		L14,8.8c-0.5-0.8-1-1.4-1.6-1.9S11,6.3,10.2,6.3c-0.8,0-1.4,0.2-1.8,0.5S7.7,7.5,7.7,8.1c0,0.5,0.2,0.9,0.7,1.3
		c0.5,0.4,1.1,0.7,1.8,1s1.6,0.6,2.4,0.9c1,0.4,1.9,0.8,2.8,1.4c0.8,0.6,1.5,1.3,2,2.2s0.7,1.9,0.7,3.2c0,2.2-0.7,3.9-2.2,5
		c-1.5,1.2-3.5,1.7-6,1.7c-1.3,0-2.6-0.2-3.7-0.7c-1.2-0.5-2.2-1.2-3.1-2c-0.9-0.9-1.6-1.9-2-3.1L4.7,16.2z"/>
	<path class="st1" d="M20.4,16.9c0-1.5,0.4-2.8,1.1-3.9c0.7-1.1,1.7-2,2.9-2.6s2.6-0.9,4.2-0.9c1.6,0,2.9,0.3,4.2,0.9
		s2.2,1.5,2.9,2.6c0.7,1.1,1.1,2.4,1.1,3.9s-0.4,2.8-1.1,3.9c-0.7,1.1-1.7,2-2.9,2.6c-1.2,0.6-2.6,0.9-4.2,0.9
		c-1.5,0-2.9-0.3-4.2-0.9c-1.2-0.6-2.2-1.5-2.9-2.6C20.7,19.7,20.4,18.4,20.4,16.9z M25.2,16.9c0,1.1,0.3,2,1,2.6
		c0.7,0.6,1.4,1,2.3,1c0.9,0,1.7-0.3,2.3-1c0.7-0.6,1-1.5,1-2.6s-0.3-2-1-2.6c-0.7-0.7-1.4-1-2.3-1c-0.9,0-1.7,0.3-2.3,1
		C25.5,14.9,25.2,15.8,25.2,16.9z"/>
	<path class="st1" d="M39.5-0.2h4.7V24h-4.7V-0.2z"/>
	<path class="st1" d="M52.8,18.4c0,0.8,0.1,1.5,0.4,1.9c0.3,0.5,0.8,0.7,1.6,0.7c0.7,0,1.3-0.2,1.8-0.7c0.5-0.5,0.7-1.1,0.7-1.9V9.7
		H62V24h-4.7v-2.1c-0.4,0.7-1,1.3-1.7,1.8s-1.6,0.7-2.7,0.7c-1.8,0-3-0.5-3.9-1.4c-0.8-0.9-1.2-2.3-1.2-4V9.7h4.9V18.4z"/>
	<path class="st1" d="M66.5,4.8H71v5h2.5v3.9H71V24h-4.5V13.6H64V9.7h2.5V4.8z"/>
	<path class="st1" d="M79.2,17.9c0.2,1,0.7,1.7,1.4,2.2c0.7,0.5,1.5,0.7,2.4,0.7c1.3,0,2.3-0.5,2.8-1.6l3.9,1.3
		c-0.6,1.1-1.4,2-2.4,2.8s-2.5,1.1-4.4,1.1c-1.5,0-2.9-0.3-4.1-1c-1.2-0.6-2.1-1.5-2.8-2.7c-0.7-1.1-1-2.4-1-3.8c0-0.3,0-0.5,0-0.8
		c0-0.3,0.1-0.5,0.1-0.8c0.2-1.2,0.7-2.2,1.4-3.1c0.7-0.9,1.6-1.6,2.7-2s2.3-0.7,3.7-0.7c1.4,0,2.6,0.3,3.7,0.9s2,1.4,2.6,2.5
		c0.6,1.1,1,2.4,1,3.9v0.5c0,0.2,0,0.4-0.1,0.7H79.2z M79.3,15.1h6.4c-0.4-1.5-1.4-2.2-3-2.2c-0.8,0-1.5,0.2-2.1,0.6
		C79.9,13.8,79.5,14.4,79.3,15.1z"/>
	<path class="st1" d="M96.9,16.9c0,1.1,0.4,2,1.1,2.7c0.7,0.7,1.6,1,2.7,1c0.8,0,1.7-0.2,2.4-0.6s1.4-0.9,1.8-1.6V23
		c-0.5,0.4-1.1,0.7-1.8,0.9c-0.7,0.2-1.6,0.4-2.7,0.4c-1.6,0-3-0.3-4.2-0.9c-1.2-0.6-2.2-1.5-2.9-2.6c-0.7-1.1-1.1-2.4-1.1-3.9
		s0.4-2.8,1.1-3.9c0.7-1.1,1.7-2,2.9-2.6s2.7-0.9,4.2-0.9c1.1,0,2,0.1,2.7,0.4c0.7,0.2,1.3,0.5,1.8,0.9v4.6
		c-0.4-0.7-1.1-1.2-1.9-1.6c-0.8-0.4-1.6-0.5-2.4-0.5c-1.1,0-1.9,0.4-2.7,1.1C97.3,14.9,96.9,15.8,96.9,16.9z"/>
	<path class="st1" d="M117.5,15.3c0-0.8-0.2-1.5-0.5-1.9s-0.8-0.7-1.6-0.7c-0.7,0-1.3,0.2-1.8,0.7s-0.7,1.1-0.7,1.9V24h-4.7V-0.2
		h4.7v11.9c0.4-0.7,1-1.3,1.7-1.8c0.7-0.5,1.6-0.7,2.7-0.7c1.8,0,3,0.5,3.8,1.4s1.1,2.3,1.1,4V24h-4.7V15.3z"/>
</g>
</svg>
