<svg id="Слой_1" data-name="Слой 1" xmlns="http://www.w3.org/2000/svg" viewBox="0 0 121.1 25"><defs><style>.cls-1{fill:#fff;}</style></defs><title>logo-wh</title><path class="cls-1" d="M4.7,16.2A8.91,8.91,0,0,0,7,19.1a4.84,4.84,0,0,0,2.9,1c1.8,0,2.6-.7,2.6-2.1a2,2,0,0,0-.6-1.5,4.88,4.88,0,0,0-1.6-1c-.7-.3-1.3-.5-2.1-.9-.5-.2-1.1-.5-1.8-.8a11.33,11.33,0,0,1-2-1.3,5.5,5.5,0,0,1-1.5-1.9,6,6,0,0,1-.6-2.7,5.09,5.09,0,0,1,1-3.2A5.82,5.82,0,0,1,6,2.6a10.19,10.19,0,0,1,4-.8,9.07,9.07,0,0,1,3.9.7,10,10,0,0,1,2.6,1.8,6.75,6.75,0,0,1,1.4,2.2L14,8.8a7.66,7.66,0,0,0-1.6-1.9,3.34,3.34,0,0,0-2.2-.6,3,3,0,0,0-1.8.5,1.56,1.56,0,0,0,0,2.6,7.68,7.68,0,0,0,1.8,1c.7.3,1.6.6,2.4.9a14.65,14.65,0,0,1,2.8,1.4,7,7,0,0,1,2,2.2,6.31,6.31,0,0,1,.7,3.2,5.8,5.8,0,0,1-2.2,5,9.3,9.3,0,0,1-6,1.7,9,9,0,0,1-3.7-.7,11,11,0,0,1-3.1-2,7.89,7.89,0,0,1-2-3.1Z" transform="translate(-1.1 0.2)"/><path class="cls-1" d="M20.4,16.9A7.13,7.13,0,0,1,21.5,13a7.29,7.29,0,0,1,2.9-2.6,9.28,9.28,0,0,1,4.2-.9,9.58,9.58,0,0,1,4.2.9A6.69,6.69,0,0,1,35.7,13a7.13,7.13,0,0,1,1.1,3.9,7.13,7.13,0,0,1-1.1,3.9,7.29,7.29,0,0,1-2.9,2.6,9.28,9.28,0,0,1-4.2.9,9.9,9.9,0,0,1-4.2-.9,7.29,7.29,0,0,1-2.9-2.6A6.39,6.39,0,0,1,20.4,16.9Zm4.8,0a3.25,3.25,0,0,0,1,2.6,3.45,3.45,0,0,0,2.3,1,2.9,2.9,0,0,0,2.3-1,3.25,3.25,0,0,0,1-2.6,3.25,3.25,0,0,0-1-2.6,3,3,0,0,0-2.3-1,2.9,2.9,0,0,0-2.3,1A3.25,3.25,0,0,0,25.2,16.9Z" transform="translate(-1.1 0.2)"/><path class="cls-1" d="M39.5-.2h4.7V24H39.5Z" transform="translate(-1.1 0.2)"/><path class="cls-1" d="M52.8,18.4a3.36,3.36,0,0,0,.4,1.9,1.65,1.65,0,0,0,1.6.7,2.41,2.41,0,0,0,1.8-.7,2.49,2.49,0,0,0,.7-1.9V9.7H62V24H57.3V21.9a5.81,5.81,0,0,1-1.7,1.8,4.53,4.53,0,0,1-2.7.7A5.14,5.14,0,0,1,49,23a6,6,0,0,1-1.2-4V9.7h4.9v8.7Z" transform="translate(-1.1 0.2)"/><path class="cls-1" d="M66.5,4.8H71v5h2.5v3.9H71V24H66.5V13.6H64V9.7h2.5Z" transform="translate(-1.1 0.2)"/><path class="cls-1" d="M79.2,17.9a3.41,3.41,0,0,0,1.4,2.2,4,4,0,0,0,2.4.7,2.82,2.82,0,0,0,2.8-1.6l3.9,1.3a9.18,9.18,0,0,1-2.4,2.8,7,7,0,0,1-4.4,1.1,8,8,0,0,1-4.1-1A6.62,6.62,0,0,1,76,20.7a7,7,0,0,1-1-3.8v-.8c0-.3.1-.5.1-.8a6.77,6.77,0,0,1,1.4-3.1,6,6,0,0,1,2.7-2,10.6,10.6,0,0,1,3.7-.7,7.51,7.51,0,0,1,3.7.9,6.27,6.27,0,0,1,2.6,2.5,8.05,8.05,0,0,1,1,3.9v.5a2,2,0,0,1-.1.7H79.2Zm.1-2.8h6.4a2.76,2.76,0,0,0-3-2.2,3.7,3.7,0,0,0-2.1.6A2.33,2.33,0,0,0,79.3,15.1Z" transform="translate(-1.1 0.2)"/><path class="cls-1" d="M96.9,16.9A3.69,3.69,0,0,0,98,19.6a3.62,3.62,0,0,0,2.7,1,5,5,0,0,0,2.4-.6,4.64,4.64,0,0,0,1.8-1.6V23a5.08,5.08,0,0,1-1.8.9,9.63,9.63,0,0,1-2.7.4,9.28,9.28,0,0,1-4.2-.9,7.29,7.29,0,0,1-2.9-2.6,7.13,7.13,0,0,1-1.1-3.9A7.13,7.13,0,0,1,93.3,13a7.29,7.29,0,0,1,2.9-2.6,9.58,9.58,0,0,1,4.2-.9,7,7,0,0,1,2.7.4,5.08,5.08,0,0,1,1.8.9v4.6a4.31,4.31,0,0,0-1.9-1.6,5.19,5.19,0,0,0-2.4-.5,3.86,3.86,0,0,0-2.7,1.1A3.22,3.22,0,0,0,96.9,16.9Z" transform="translate(-1.1 0.2)"/><path class="cls-1" d="M117.5,15.3a3.31,3.31,0,0,0-.5-1.9,1.87,1.87,0,0,0-1.6-.7,2.41,2.41,0,0,0-1.8.7,2.49,2.49,0,0,0-.7,1.9V24h-4.7V-.2h4.7V11.7a5.81,5.81,0,0,1,1.7-1.8,4.53,4.53,0,0,1,2.7-.7,4.76,4.76,0,0,1,3.8,1.4,6,6,0,0,1,1.1,4V24h-4.7Z" transform="translate(-1.1 0.2)"/></svg>