<svg id="Capa_1" data-name="Capa 1" xmlns="http://www.w3.org/2000/svg" viewBox="0 0 180.05 214.27"><defs><style>.cls-1{fill:#fff;}</style></defs><title>security</title><path class="cls-1" d="M196.93,55.17c-.11-5.78-.22-11.25-.22-16.54a7.5,7.5,0,0,0-7.5-7.5c-32.07,0-56.5-9.21-76.85-29a7.5,7.5,0,0,0-10.46,0c-20.35,19.8-44.77,29-76.84,29a7.5,7.5,0,0,0-7.5,7.5c0,5.29-.11,10.76-.22,16.55-1,53.83-2.43,127.56,87.33,158.68a7.58,7.58,0,0,0,4.92,0C199.36,182.74,198,109,196.93,55.17Zm-89.8,143.64c-77-28-75.82-89.23-74.79-143.35.06-3.25.12-6.4.16-9.48,30-1.27,54.07-10.37,74.63-28.29,20.57,17.92,44.59,27,74.63,28.29.05,3.08.11,6.23.17,9.48C183,109.58,184.12,170.84,107.13,198.81Z" transform="translate(-17.11 0)"/><path class="cls-1" d="M133,81.08l-36.2,36.2L81.31,101.83a7.5,7.5,0,1,0-10.6,10.61l20.75,20.75a7.51,7.51,0,0,0,10.6,0l41.5-41.5A7.5,7.5,0,0,0,133,81.08Z" transform="translate(-17.11 0)"/></svg>