<svg xmlns="http://www.w3.org/2000/svg" viewBox="0 0 3242.98 2000"><defs><style>.cls-1{fill:#fff;}.cls-2{opacity:0.18;}</style></defs><title>bb2</title><path class="cls-1" d="M2570.42,410.65a3,3,0,1,1-3-3A3,3,0,0,1,2570.42,410.65Z"/><path class="cls-1" d="M2570.42,432.42a3,3,0,1,1-3-3A3,3,0,0,1,2570.42,432.42Z"/><path class="cls-1" d="M2570.42,454.19a3,3,0,1,1-3-3A3,3,0,0,1,2570.42,454.19Z"/><path class="cls-1" d="M2570.42,476a3,3,0,1,1-3-3A3,3,0,0,1,2570.42,476Z"/><path class="cls-1" d="M2570.42,497.73a3,3,0,1,1-3-3A3,3,0,0,1,2570.42,497.73Z"/><path class="cls-1" d="M2570.42,519.5a3,3,0,1,1-3-3A3,3,0,0,1,2570.42,519.5Z"/><path class="cls-1" d="M2570.42,541.27a3,3,0,1,1-3-3A3,3,0,0,1,2570.42,541.27Z"/><path class="cls-1" d="M2570.42,563a3,3,0,1,1-3-3A3,3,0,0,1,2570.42,563Z"/><path class="cls-1" d="M2592.19,410.65a3,3,0,1,1-3-3A3,3,0,0,1,2592.19,410.65Z"/><path class="cls-1" d="M2592.19,432.42a3,3,0,1,1-3-3A3,3,0,0,1,2592.19,432.42Z"/><path class="cls-1" d="M2592.19,454.19a3,3,0,1,1-3-3A3,3,0,0,1,2592.19,454.19Z"/><path class="cls-1" d="M2592.19,476a3,3,0,1,1-3-3A3,3,0,0,1,2592.19,476Z"/><path class="cls-1" d="M2592.19,497.73a3,3,0,1,1-3-3A3,3,0,0,1,2592.19,497.73Z"/><path class="cls-1" d="M2592.19,519.5a3,3,0,1,1-3-3A3,3,0,0,1,2592.19,519.5Z"/><path class="cls-1" d="M2592.19,541.27a3,3,0,1,1-3-3A3,3,0,0,1,2592.19,541.27Z"/><path class="cls-1" d="M2592.19,563a3,3,0,1,1-3-3A3,3,0,0,1,2592.19,563Z"/><path class="cls-1" d="M2614,410.65a3,3,0,1,1-3-3A3,3,0,0,1,2614,410.65Z"/><path class="cls-1" d="M2614,432.42a3,3,0,1,1-3-3A3,3,0,0,1,2614,432.42Z"/><path class="cls-1" d="M2614,454.19a3,3,0,1,1-3-3A3,3,0,0,1,2614,454.19Z"/><path class="cls-1" d="M2614,476a3,3,0,1,1-3-3A3,3,0,0,1,2614,476Z"/><path class="cls-1" d="M2614,497.73a3,3,0,1,1-3-3A3,3,0,0,1,2614,497.73Z"/><path class="cls-1" d="M2614,519.5a3,3,0,1,1-3-3A3,3,0,0,1,2614,519.5Z"/><path class="cls-1" d="M2614,541.27a3,3,0,1,1-3-3A3,3,0,0,1,2614,541.27Z"/><path class="cls-1" d="M2614,563a3,3,0,1,1-3-3A3,3,0,0,1,2614,563Z"/><path class="cls-1" d="M2635.73,410.65a3,3,0,1,1-3-3A3,3,0,0,1,2635.73,410.65Z"/><path class="cls-1" d="M2635.73,432.42a3,3,0,1,1-3-3A3,3,0,0,1,2635.73,432.42Z"/><path class="cls-1" d="M2635.73,454.19a3,3,0,1,1-3-3A3,3,0,0,1,2635.73,454.19Z"/><path class="cls-1" d="M2635.73,476a3,3,0,1,1-3-3A3,3,0,0,1,2635.73,476Z"/><path class="cls-1" d="M2635.73,497.73a3,3,0,1,1-3-3A3,3,0,0,1,2635.73,497.73Z"/><path class="cls-1" d="M2635.73,519.5a3,3,0,1,1-3-3A3,3,0,0,1,2635.73,519.5Z"/><path class="cls-1" d="M2635.73,541.27a3,3,0,1,1-3-3A3,3,0,0,1,2635.73,541.27Z"/><path class="cls-1" d="M2635.73,563a3,3,0,1,1-3-3A3,3,0,0,1,2635.73,563Z"/><path class="cls-1" d="M2657.5,410.65a3,3,0,1,1-3-3A3,3,0,0,1,2657.5,410.65Z"/><path class="cls-1" d="M2570.42,388.88a3,3,0,1,1-3-3A3,3,0,0,1,2570.42,388.88Z"/><path class="cls-1" d="M2592.19,388.88a3,3,0,1,1-3-3A3,3,0,0,1,2592.19,388.88Z"/><path class="cls-1" d="M2614,388.88a3,3,0,1,1-3-3A3,3,0,0,1,2614,388.88Z"/><path class="cls-1" d="M2635.73,388.88a3,3,0,1,1-3-3A3,3,0,0,1,2635.73,388.88Z"/><path class="cls-1" d="M2657.5,388.88a3,3,0,1,1-3-3A3,3,0,0,1,2657.5,388.88Z"/><path class="cls-1" d="M2570.42,367.11a3,3,0,1,1-3-3A3,3,0,0,1,2570.42,367.11Z"/><path class="cls-1" d="M2592.19,367.11a3,3,0,1,1-3-3A3,3,0,0,1,2592.19,367.11Z"/><path class="cls-1" d="M2614,367.11a3,3,0,1,1-3-3A3,3,0,0,1,2614,367.11Z"/><path class="cls-1" d="M2635.73,367.11a3,3,0,1,1-3-3A3,3,0,0,1,2635.73,367.11Z"/><path class="cls-1" d="M2657.5,367.11a3,3,0,1,1-3-3A3,3,0,0,1,2657.5,367.11Z"/><path class="cls-1" d="M2570.42,345.34a3,3,0,1,1-3-3A3,3,0,0,1,2570.42,345.34Z"/><path class="cls-1" d="M2592.19,345.34a3,3,0,1,1-3-3A3,3,0,0,1,2592.19,345.34Z"/><path class="cls-1" d="M2614,345.34a3,3,0,1,1-3-3A3,3,0,0,1,2614,345.34Z"/><path class="cls-1" d="M2635.73,345.34a3,3,0,1,1-3-3A3,3,0,0,1,2635.73,345.34Z"/><path class="cls-1" d="M2657.5,345.34a3,3,0,1,1-3-3A3,3,0,0,1,2657.5,345.34Z"/><path class="cls-1" d="M2570.42,323.57a3,3,0,1,1-3-3A3,3,0,0,1,2570.42,323.57Z"/><path class="cls-1" d="M2592.19,323.57a3,3,0,1,1-3-3A3,3,0,0,1,2592.19,323.57Z"/><path class="cls-1" d="M2614,323.57a3,3,0,1,1-3-3A3,3,0,0,1,2614,323.57Z"/><path class="cls-1" d="M2635.73,323.57a3,3,0,1,1-3-3A3,3,0,0,1,2635.73,323.57Z"/><path class="cls-1" d="M2657.5,323.57a3,3,0,1,1-3-3A3,3,0,0,1,2657.5,323.57Z"/><path class="cls-1" d="M2657.5,432.42a3,3,0,1,1-3-3A3,3,0,0,1,2657.5,432.42Z"/><path class="cls-1" d="M2657.5,454.19a3,3,0,1,1-3-3A3,3,0,0,1,2657.5,454.19Z"/><path class="cls-1" d="M2657.5,476a3,3,0,1,1-3-3A3,3,0,0,1,2657.5,476Z"/><path class="cls-1" d="M2657.5,497.73a3,3,0,1,1-3-3A3,3,0,0,1,2657.5,497.73Z"/><path class="cls-1" d="M2657.5,519.5a3,3,0,1,1-3-3A3,3,0,0,1,2657.5,519.5Z"/><path class="cls-1" d="M2657.5,541.27a3,3,0,1,1-3-3A3,3,0,0,1,2657.5,541.27Z"/><path class="cls-1" d="M2657.5,563a3,3,0,1,1-3-3A3,3,0,0,1,2657.5,563Z"/><g class="cls-2"><polygon class="cls-1" points="2803.17 1184.83 2787.34 1169 2771.52 1184.83 2755.69 1169 2739.86 1184.83 2724.03 1169 2708.21 1184.83 2692.38 1169 2676.55 1184.83 2660.72 1169 2644.9 1184.83 2628.28 1168.21 2629.86 1166.62 2644.9 1181.65 2660.72 1165.83 2676.55 1181.65 2692.38 1165.83 2708.21 1181.65 2724.03 1165.83 2739.86 1181.65 2755.69 1165.83 2771.52 1181.65 2787.34 1165.83 2803.17 1181.65 2819 1165.83 2835.62 1182.45 2834.03 1184.03 2819 1169 2803.17 1184.83"/></g><polygon class="cls-1" points="2802.66 1161 2786.83 1145.17 2771 1161 2755.17 1145.17 2739.34 1161 2723.52 1145.17 2707.69 1161 2691.86 1145.17 2676.03 1161 2660.21 1145.17 2644.38 1161 2627.76 1144.38 2629.34 1142.79 2644.38 1157.83 2660.21 1142 2676.03 1157.83 2691.86 1142 2707.69 1157.83 2723.52 1142 2739.34 1157.83 2755.17 1142 2771 1157.83 2786.83 1142 2802.66 1157.83 2818.48 1142 2835.1 1158.62 2833.52 1160.21 2818.48 1145.17 2802.66 1161"/><path class="cls-1" d="M1962.88,1448.87a2.12,2.12,0,0,1-2.13-2.12V1383a2.13,2.13,0,0,1,4.25,0v63.75A2.12,2.12,0,0,1,1962.88,1448.87Z"/><path class="cls-1" d="M1994.75,1417H1931a2.13,2.13,0,1,1,0-4.25h63.75a2.13,2.13,0,0,1,0,4.25Z"/><path class="cls-1" d="M1939,315.74Zm0,0Z"/><path class="cls-1" d="M2465,928.7a2.25,2.25,0,0,1-2.25-2.25V910.93a2.25,2.25,0,1,1,4.5,0v15.52A2.25,2.25,0,0,1,2465,928.7Z"/><path class="cls-1" d="M2452.09,934a2.23,2.23,0,0,1-1.59-.66l-11-11a2.25,2.25,0,1,1,3.18-3.18l11,11a2.25,2.25,0,0,1-1.59,3.84Z"/><path class="cls-1" d="M2446.75,946.93h-15.52a2.25,2.25,0,0,1,0-4.5h15.52a2.25,2.25,0,0,1,0,4.5Z"/><path class="cls-1" d="M2441.12,970.8a2.25,2.25,0,0,1-1.59-3.84l11-11a2.25,2.25,0,1,1,3.18,3.18l-11,11A2.25,2.25,0,0,1,2441.12,970.8Z"/><path class="cls-1" d="M2465,980.68a2.25,2.25,0,0,1-2.25-2.25V962.92a2.25,2.25,0,0,1,4.5,0v15.51A2.24,2.24,0,0,1,2465,980.68Z"/><path class="cls-1" d="M2488.85,970.8a2.23,2.23,0,0,1-1.59-.66l-11-11a2.25,2.25,0,0,1,3.18-3.18l11,11a2.25,2.25,0,0,1-1.59,3.84Z"/><path class="cls-1" d="M2498.73,946.93h-15.51a2.25,2.25,0,0,1,0-4.5h15.51a2.25,2.25,0,0,1,0,4.5Z"/><path class="cls-1" d="M2477.88,934a2.25,2.25,0,0,1-1.59-3.84l11-11a2.25,2.25,0,1,1,3.18,3.18l-11,11A2.25,2.25,0,0,1,2477.88,934Z"/><path class="cls-1" d="M606.67,694.89a587.81,587.81,0,0,0-87.35-140.72c-38-45.6-83.59-87.09-135.62-123.31C279.41,358.25,150.49,306.8,0,277.68v3.07c298.22,57.92,511.83,204.42,603.93,415.34,73.42,168.15,57.47,358.46-42.66,509.07-60,90.3-169.89,269.57-230.95,455.56-30.91,94.12-45.83,179.38-44.34,253.4A422.77,422.77,0,0,0,296.11,2000H299c-21.09-91.56-9.73-204.75,34.14-338.35C394.12,1476,503.81,1297,563.76,1206.82,664.46,1055.35,680.5,864,606.67,694.89Z"/><path class="cls-1" d="M3009.27,789.44c-80.81-93.5-152.85-252.15-112.7-417C2932.31,225.69,3051.22,98.38,3243,0h-6.78C3152.3,43.42,3082.54,92.28,3028,146c-69.19,68-114.38,144-134.29,225.76-18.49,75.91-15.14,154.81,10,234.52A528.43,528.43,0,0,0,3007,791.4c59.13,68.42,110.32,182.78,133.58,298.47,25.1,124.84,14,228.62-30.55,284.74-24.89,31.38-59.78,47.86-103.7,49-48.94,1.23-109-16.65-178.64-53.16-76.21-40-145.68-64.14-206.48-71.86-56.52-7.17-107.46-.35-151.42,20.28-59.14,27.75-106.86,79.79-145.9,159.09-31.32,63.63-56.65,143.58-79.7,251.58-17.26,80.88-51.81,136-105.63,168.5-116.22,70.19-319,33.88-608.64-47.47-130.68-36.7-234.45-31.88-308.42,14.35-30.54,19.08-55.84,45.33-75.22,78a295,295,0,0,0-25.75,57.08h3.09c19.87-59.18,53.19-103.64,99.47-132.56,73.23-45.76,176.18-50.47,306-14,183,51.4,331.44,84.84,445.56,84.84,67,0,122.12-11.53,165.44-37.69,54.56-33,89.57-88.71,107-170.44,33.52-157,89.26-345.38,223.94-408.58,91.27-42.83,207.47-26,355.24,51.52,70.07,36.75,130.66,54.75,180.1,53.49,44.85-1.13,80.51-18,106-50.11,45.06-56.81,56.41-161.49,31.14-287.19C3120.16,973.11,3068.72,858.22,3009.27,789.44Z"/><path class="cls-1" d="M1836.74,0c-76,196.73-185.7,319.54-326.4,365.17C1295.1,435,1071.23,305.43,985,246.49,823.23,136,706.61,59.8,530.7,0h-9.41c180.31,60.11,297.89,136.84,462,249,53.14,36.32,137.67,85.78,238.57,115.22,54.92,16,107.69,24,157.94,24,46,0,90-6.73,131.48-20.19C1653.13,322,1763.62,198.25,1840,0Z"/><circle class="cls-1" cx="1607.23" cy="320.48" r="12.4" transform="translate(926.05 1811.08) rotate(-76.72)"/><circle class="cls-1" cx="2890.49" cy="544.02" r="12.4"/><circle class="cls-1" cx="2298.06" cy="1542.79" r="12.4" transform="translate(407.08 3564.05) rotate(-80.78)"/><circle class="cls-1" cx="341.95" cy="1631.82" r="12.4" transform="translate(-1053.71 719.74) rotate(-45)"/><circle class="cls-1" cx="573.46" cy="633.38" r="12.4"/></svg>