<svg id="Слой_1" data-name="Слой 1" xmlns="http://www.w3.org/2000/svg" viewBox="0 0 132.86 24.31"><defs><style>.cls-1{isolation:isolate;}.cls-2{fill:#fff;}.cls-3{fill:#216fff;}</style></defs><title>logo</title><g id="Solutech."><g class="cls-1"><path class="cls-2" d="M13.83,21.4a2.41,2.41,0,0,0-.94-2,12.32,12.32,0,0,0-3.37-1.5,23.83,23.83,0,0,1-3.86-1.55q-3.88-2.09-3.87-5.64a5.49,5.49,0,0,1,1-3.29,6.78,6.78,0,0,1,3-2.26,11.24,11.24,0,0,1,4.37-.81,10.23,10.23,0,0,1,4.34.88,6.93,6.93,0,0,1,3,2.49,6.52,6.52,0,0,1,1.05,3.66H13.84a3.07,3.07,0,0,0-1-2.43A4,4,0,0,0,10.09,8a4.32,4.32,0,0,0-2.67.73,2.29,2.29,0,0,0-1,1.91,2.19,2.19,0,0,0,1.12,1.86,12.61,12.61,0,0,0,3.29,1.41,14.22,14.22,0,0,1,5.83,3,5.94,5.94,0,0,1,1.83,4.44A5.47,5.47,0,0,1,16.3,26a9.78,9.78,0,0,1-6,1.68,11.62,11.62,0,0,1-4.78-1,7.56,7.56,0,0,1-3.29-2.63,6.74,6.74,0,0,1-1.13-3.87h4.7q0,3.77,4.5,3.77a4.38,4.38,0,0,0,2.61-.68A2.21,2.21,0,0,0,13.83,21.4Z" transform="translate(-1.08 -3.37)"/><path class="cls-2" d="M20.7,18.76a10,10,0,0,1,1-4.48,7.09,7.09,0,0,1,2.79-3,8.14,8.14,0,0,1,4.23-1.08,7.7,7.7,0,0,1,5.59,2.09,8.41,8.41,0,0,1,2.41,5.69l0,1.16a8.84,8.84,0,0,1-2.17,6.24,7.55,7.55,0,0,1-5.83,2.35,7.59,7.59,0,0,1-5.84-2.34A9,9,0,0,1,20.7,19Zm4.52.32a6.31,6.31,0,0,0,.91,3.69,3.26,3.26,0,0,0,5.16,0,6.92,6.92,0,0,0,.92-4,6.26,6.26,0,0,0-.92-3.66,3,3,0,0,0-2.59-1.3,3,3,0,0,0-2.56,1.29A7,7,0,0,0,25.22,19.08Z" transform="translate(-1.08 -3.37)"/><path class="cls-2" d="M44.27,27.37H39.73v-24h4.53Z" transform="translate(-1.08 -3.37)"/><path class="cls-2" d="M58.11,25.65a5.66,5.66,0,0,1-4.62,2,5.34,5.34,0,0,1-4.15-1.56,6.67,6.67,0,0,1-1.46-4.58V10.46h4.52V21.4Q52.39,24,54.8,24A3.26,3.26,0,0,0,58,22.45v-12h4.53V27.37H58.23Z" transform="translate(-1.08 -3.37)"/><path class="cls-2" d="M71.3,6.31v4.16h2.89v3.31H71.3v8.44a2,2,0,0,0,.36,1.34A1.8,1.8,0,0,0,73,24a7.18,7.18,0,0,0,1.33-.11v3.42a9.31,9.31,0,0,1-2.73.41q-4.75,0-4.84-4.8V13.78H64.31V10.46h2.47V6.31Z" transform="translate(-1.08 -3.37)"/><path class="cls-2" d="M84.48,27.68a8.3,8.3,0,0,1-6.05-2.28,8.11,8.11,0,0,1-2.34-6.08v-.44a10.22,10.22,0,0,1,1-4.55,7.23,7.23,0,0,1,2.79-3.09A7.83,7.83,0,0,1,84,10.15a7,7,0,0,1,5.46,2.19,8.89,8.89,0,0,1,2,6.2v1.84H80.67A4.19,4.19,0,0,0,82,23a4,4,0,0,0,2.79,1,4.87,4.87,0,0,0,4.08-1.89l2.22,2.48a6.78,6.78,0,0,1-2.75,2.24A9,9,0,0,1,84.48,27.68ZM84,13.79a2.82,2.82,0,0,0-2.18.91,4.71,4.71,0,0,0-1.07,2.61H87v-.36a3.37,3.37,0,0,0-.81-2.33A2.91,2.91,0,0,0,84,13.79Z" transform="translate(-1.08 -3.37)"/><path class="cls-2" d="M101,24a3,3,0,0,0,2-.69,2.41,2.41,0,0,0,.81-1.83h4.23a5.8,5.8,0,0,1-.94,3.15,6.19,6.19,0,0,1-2.52,2.22,7.91,7.91,0,0,1-3.54.79,7.34,7.34,0,0,1-5.72-2.3A9.12,9.12,0,0,1,93.3,19v-.3a9,9,0,0,1,2.08-6.23,7.25,7.25,0,0,1,5.7-2.33,7.11,7.11,0,0,1,5.09,1.8,6.39,6.39,0,0,1,1.95,4.8h-4.23a3.11,3.11,0,0,0-.81-2.14,3,3,0,0,0-4.45.33,6.66,6.66,0,0,0-.8,3.73v.47a6.75,6.75,0,0,0,.8,3.76A2.75,2.75,0,0,0,101,24Z" transform="translate(-1.08 -3.37)"/><path class="cls-2" d="M115.09,12.31a5.64,5.64,0,0,1,4.52-2.16q5.5,0,5.58,6.39V27.37h-4.52V16.67a3.14,3.14,0,0,0-.62-2.15,2.68,2.68,0,0,0-2.08-.7,3.07,3.07,0,0,0-2.87,1.53v12h-4.52v-24h4.52Z" transform="translate(-1.08 -3.37)"/></g><g class="cls-1"><path class="cls-3" d="M128.83,25.15a2.27,2.27,0,0,1,.73-1.75,2.82,2.82,0,0,1,3.66,0,2.27,2.27,0,0,1,.73,1.75,2.24,2.24,0,0,1-.72,1.73,2.87,2.87,0,0,1-3.67,0A2.24,2.24,0,0,1,128.83,25.15Z" transform="translate(-1.08 -3.37)"/></g></g></svg>