<svg height="512" viewBox="0 0 64 64" width="512" xmlns="http://www.w3.org/2000/svg"><path d="m46.825 41.238v-14.882a14.826 14.826 0 1 0 -29.65 0v14.882c0 1.871-2.2 7.484-5.675 7.484h41c-3.475 0-5.675-5.613-5.675-7.484z" fill="#4370ff"/><path d="m52.5 46.722c-1.9 0-3.675-4.256-3.675-5.484v-14.882a16.989 16.989 0 0 0 -7.852-14.328 10.263 10.263 0 0 1 -2.586 3.1 12.992 12.992 0 0 1 6.438 11.228v14.882a12.444 12.444 0 0 0 1.843 5.484h-29.336a12.444 12.444 0 0 0 1.843-5.484v-14.882a12.911 12.911 0 0 1 12.825-12.967 6.215 6.215 0 1 0 -5.359-3.1 16.974 16.974 0 0 0 -11.466 16.07v14.879c0 1.228-1.78 5.484-3.675 5.484v4h25.433l1.032 2.834a5.407 5.407 0 1 0 3.757-1.37l-.533-1.464h11.311zm-20.5-41.722a2.195 2.195 0 1 1 -2.194 2.194 2.2 2.2 0 0 1 2.194-2.194zm9.56 51.178a1.411 1.411 0 1 1 -1.411 1.411 1.413 1.413 0 0 1 1.411-1.411z"/></svg>