<?xml version="1.0" encoding="iso-8859-1"?>
<!-- Generator: Adobe Illustrator 21.0.0, SVG Export Plug-In . SVG Version: 6.00 Build 0)  -->
<svg xmlns="http://www.w3.org/2000/svg" xmlns:xlink="http://www.w3.org/1999/xlink" version="1.1" id="Capa_1" x="0px" y="0px" viewBox="0 0 506.048 506.048" style="enable-background:new 0 0 506.048 506.048;" xml:space="preserve" width="512" height="512">
<g id="XMLID_28_">
	<path id="XMLID_706_" style="fill:#9196AA;" d="M126.985,80.087c-8.284,0-15-6.716-15-15V15c0-8.284,6.716-15,15-15s15,6.716,15,15   v50.087C141.985,73.371,135.269,80.087,126.985,80.087z"/>
	<path id="XMLID_718_" style="fill:#9196AA;" d="M294.705,367.313h-83.361c-8.284,0-15,6.716-15,15v52.313c0,8.284,6.716,15,15,15   h83.361c8.284,0,15-6.716,15-15v-52.313C309.705,374.029,302.989,367.313,294.705,367.313z"/>
	<path id="XMLID_717_" style="fill:#DCE1EB;" d="M253.024,0C143.484,0,54.367,89.117,54.367,198.657s89.117,198.657,198.657,198.657   s198.657-89.117,198.657-198.657S362.564,0,253.024,0z"/>
	<path id="XMLID_716_" style="fill:#E9EDF5;" d="M253.024,84.633C190.151,84.633,139,135.784,139,198.657   s51.151,114.024,114.024,114.024s114.024-51.151,114.024-114.024S315.897,84.633,253.024,84.633z"/>
	<path id="XMLID_744_" style="fill:#636978;" d="M253.024,138.655c-33.085,0-60.002,26.917-60.002,60.001   s26.917,60.001,60.002,60.001s60.002-26.917,60.002-60.001S286.109,138.655,253.024,138.655z"/>
	<path id="XMLID_712_" style="fill:#DCE1EB;" d="M382.134,419.626H123.914c-38.349,0-69.547,31.199-69.547,69.547v1.875   c0,8.284,6.716,15,15,15h367.314c8.284,0,15-6.716,15-15v-1.875C451.681,450.825,420.483,419.626,382.134,419.626z"/>
	<path id="XMLID_352_" style="fill:#707789;" d="M294.705,367.313h-41.681v82.313h41.681c8.284,0,15-6.716,15-15v-52.313   C309.705,374.029,302.989,367.313,294.705,367.313z"/>
	<path id="XMLID_435_" style="fill:#AFB4C8;" d="M253.024,0v397.313c109.54,0,198.657-89.117,198.657-198.657S362.564,0,253.024,0z"/>
	<path id="XMLID_715_" style="fill:#CDD2E1;" d="M253.024,84.633v228.048c62.873,0,114.024-51.151,114.024-114.024   S315.897,84.633,253.024,84.633z"/>
	<path id="XMLID_760_" style="fill:#414952;" d="M253.024,138.655v120.003c33.085,0,60.002-26.917,60.002-60.001   S286.109,138.655,253.024,138.655z"/>
	<path id="XMLID_777_" style="fill:#AFB4C8;" d="M382.134,419.626h-129.11v86.421h183.657c8.284,0,15-6.716,15-15v-1.875   C451.681,450.825,420.483,419.626,382.134,419.626z"/>
</g>















</svg>
