<svg height="512" viewBox="0 0 64 64" width="512" xmlns="http://www.w3.org/2000/svg"><path d="m42.59 7.183-38.512 18.293a1.883 1.883 0 0 0 -.894 2.513l2.258 4.725 11.905-1.132 4.341 9.085a1.894 1.894 0 0 0 2.521.891l28.368-13.474a1.884 1.884 0 0 0 .894-2.514l-8.36-17.5a1.894 1.894 0 0 0 -2.521-.887z" fill="#4370ff"/><path d="m27.745 22.184h11.985v4h-11.985z" transform="matrix(.903 -.43 .43 .903 -7.122 16.862)"/><path d="m59 42.369v5.365l-20.246-8.069v-2.8l14.682-6.975a3.882 3.882 0 0 0 1.84-5.182l-3.336-6.981-3.612 1.72 3.287 6.879-28.17 13.381-4.9-10.249-11.901 1.132-1.6-3.357 38.313-18.2 3.251 6.8 3.611-1.721-3.3-6.905a3.9 3.9 0 0 0 -5.183-1.836l-38.516 18.298a3.881 3.881 0 0 0 -1.84 5.182l2.86 5.986 2.275-.216 4.009 8.39a3.9 3.9 0 0 0 5.183 1.835l4.874-2.315a3.894 3.894 0 0 0 4.486.834l9.687-4.6v3.614l24.246 9.662v6.959h4v-16.631zm-44.914-1.181-3.331-6.97 5.39-.512 2.533 5.3z"/></svg>