<svg height="512" viewBox="0 0 64 64" width="512" xmlns="http://www.w3.org/2000/svg"><g id="cloud_protection" data-name="cloud protection"><path d="m39.662 37.779v7.615a7.662 7.662 0 0 1 -15.324 0v-7.615z" fill="#4370ff"/><path d="m48.8 19.349a14.167 14.167 0 0 0 -3.621.468 16.715 16.715 0 0 0 -32.134 3.19 12.3 12.3 0 0 0 .318 24.6h4.973v-4h-4.971a8.3 8.3 0 1 1 0-16.6 26.81 26.81 0 0 1 3.411.438c.041-.104-.612-14.445 12.754-14.445 11.507 0 12.82 12.023 12.917 12.194 1.541-.576 3.325-1.845 6.355-1.845a10.13 10.13 0 1 1 0 20.259h-7.141v-7.829h-12.428v-2.737a2.768 2.768 0 0 1 5.535 0h4a6.768 6.768 0 0 0 -13.535 0v2.737h-2.895v9.615a9.668 9.668 0 0 0 19.062 2.214h7.4a14.13 14.13 0 1 0 0-28.259zm-11.279 27.251a5.659 5.659 0 0 1 -11.174-1.042l-.009-5.774h11.324v5.594z"/></g></svg>