<?xml version="1.0"?>
<svg xmlns="http://www.w3.org/2000/svg" viewBox="0 0 64 64" width="512" height="512"><title>fingerprint scan sensor security</title><g id="finger_print" data-name="finger print"><path d="M32,11A19.061,19.061,0,0,0,12.939,30.061V53H51.062V30.061A19.061,19.061,0,0,0,32,11Z" style="fill:#4370ff"/><path d="M5,44.846H1V63H19.154V59H5Z"/><path d="M59,59H44.847v4H63V44.846H59Z"/><path d="M5,5H19.154V1H1V19.154H5Z"/><path d="M44.847,1V5H59V19.154h4V1Z"/><path d="M46.323,40.846V30.062a14.323,14.323,0,0,0-28.645,0V40.846h4V30.062a10.323,10.323,0,0,1,20.645,0V40.846Z"/><path d="M39.583,40.846V30.062a7.583,7.583,0,1,0-15.165,0V40.846h4V30.062a3.583,3.583,0,1,1,7.165,0V40.846Z"/><path d="M10.939,44.846V55H53.061V30.062a21.061,21.061,0,1,0-42.122,0V40.846h4V30.062a17.061,17.061,0,1,1,34.122,0V51H46.323V44.846h-4V51h-2.74V44.846h-4V51H28.418V44.846h-4V51h-2.74V44.846h-4V51H14.939V44.846Z"/></g></svg>
