<svg height="512" viewBox="0 0 64 64" width="512" xmlns="http://www.w3.org/2000/svg"><path d="m54.5 36.283a22.343 22.343 0 0 0 -15.163-21.1v-4.183h-14.674v4.184a22.284 22.284 0 0 0 1.744 42.741 6.624 6.624 0 0 0 11.186 0 22.376 22.376 0 0 0 16.907-21.642zm-18.107 13.251a6.61 6.61 0 0 0 -8.786 0 14.059 14.059 0 1 1 8.786 0z" fill="#4370ff"/><circle cx="32" cy="54.432" r="2"/><path d="m41.337 13.8v-4.8h-7.337v-8h-4v8h-7.337v4.8a24.277 24.277 0 0 0 2.527 45.869 8.627 8.627 0 0 0 13.62 0 24.277 24.277 0 0 0 2.527-45.869zm-.786 40.968c0-.113.017-.223.017-.337a8.568 8.568 0 0 0 -8.568-8.568 8.773 8.773 0 0 0 -4.725 1.413 12.043 12.043 0 1 1 12.988-2.294 12.682 12.682 0 0 1 2.554 3.079 15.86 15.86 0 0 0 5.242-11.777 16.059 16.059 0 0 0 -32.118 0c0 12.627 12.235 15.5 12.336 15.575a4.528 4.528 0 1 1 3.723 7.102 4.5 4.5 0 0 1 -4.119-2.725 20.436 20.436 0 0 1 -16.381-19.953c0-15.636 15.062-19.6 15.163-19.67v-3.613h10.674v3.613c.1.073 15.163 3.982 15.163 19.67a20.314 20.314 0 0 1 -11.949 18.486z"/></svg>