<svg height="512" viewBox="0 0 64 64" width="512" xmlns="http://www.w3.org/2000/svg"><path d="m3 38.504h58v15.023h-58z" fill="#4370ff"/><path d="m40.393 16.789h-1.872v-1.965a6.334 6.334 0 0 0 -6.331-6.324h-.38a6.334 6.334 0 0 0 -6.331 6.324v1.965h-1.872v15.711h16.786zm-10.914-1.965a2.332 2.332 0 0 1 2.331-2.324h.38a2.332 2.332 0 0 1 2.331 2.329v1.965h-5.042zm6.914 13.684h-8.786v-7.724h8.786z"/><circle cx="16" cy="45.968" r="2"/><circle cx="24" cy="45.968" r="2"/><circle cx="32" cy="45.968" r="2"/><circle cx="40" cy="45.968" r="2"/><circle cx="48" cy="45.968" r="2"/><path d="m1 36.5v3.995h58v11.01h-54v-7.015h-4v11.01h62v-19z"/></svg>