<svg height="512" viewBox="0 0 64 64" width="512" xmlns="http://www.w3.org/2000/svg"><g id="phone_security" data-name="phone security"><path d="m13.475 11v42h37v-42zm23.092 31.6h-9.185l1.773-10.035a5.784 5.784 0 1 1 5.639 0z" fill="#4370ff"/><path d="m11.5 1v4h36.954v4h-36.954v54h40.95v-4h-36.95v-4h36.95v-38h-4v34h-32.95v-38h36.95v-12z"/><path d="m39.758 27.543a7.783 7.783 0 1 0 -12.8 5.927l-1.958 11.13h13.951l-1.965-11.13a7.746 7.746 0 0 0 2.772-5.927zm-7.181 3.964 1.606 9.09h-4.416l1.605-9.09c-.453-.373-3.18-1.092-3.18-3.964a3.783 3.783 0 0 1 7.566 0c0 2.83-2.763 3.621-3.181 3.964z"/></g></svg>