<svg height="512" viewBox="0 0 64 64" width="512" xmlns="http://www.w3.org/2000/svg"><path d="m50.938 14.109-18.938-11.109-18.938 11.109c.1.071 5.725.949 3.7 4.866h30.47c-2.068-4.012 3.575-4.775 3.706-4.866z" fill="#4370ff"/><path d="m39.012 40.887-3.054 5.959-3.958-2.972-3.958 2.972-3.054-5.959a26.142 26.142 0 0 0 -16.488 20.113h47a26.142 26.142 0 0 0 -16.488-20.113z" fill="#4370ff"/><path d="m11.937 15.763c1.1.748 3.936.585 3.05 2.294a2 2 0 0 0 1.778 2.918h26.526c.903 5.125-4.219 14.793-11.291 14.793-5.424 0-9.682-5.581-10.984-10.793h-4.1c1.4 7.289 7.334 14.793 15.087 14.793 9.351 0 16.091-11.187 15.307-18.8a1.993 1.993 0 0 0 1.706-2.908c-.923-1.784 1.966-1.555 3.051-2.3a2 2 0 0 0 -.114-3.376l-18.941-11.11a2.007 2.007 0 0 0 -2.024 0l-18.938 11.111a2 2 0 0 0 -.113 3.378zm20.063-10.445 14.529 8.524a4.458 4.458 0 0 0 -1.735 3.133h-25.61a4.225 4.225 0 0 0 -.37-1.371 4.75 4.75 0 0 0 -1.389-1.736z"/><circle cx="32" cy="12.099" r="2"/><path d="m57.23 59h-46.319a24.024 24.024 0 0 1 13.1-15.576l3.317 6.446 4.672-3.494 4.675 3.494 3.311-6.436a24.492 24.492 0 0 1 11.614 11.566h4.4a27.926 27.926 0 0 0 -16.353-16.02l-1.619-.511-2.754 5.352-3.274-2.447-3.274 2.447-2.754-5.352-1.619.511c-16.346 5.128-18.278 23.92-18.353 24.02h52c-.379-2.041-.451-2.645-.77-4z"/></svg>