<svg height="512" viewBox="0 0 64 64" width="512" xmlns="http://www.w3.org/2000/svg"><g id="protection_shield" data-name="protection shield"><path d="m61 16.957v.159c0 2.423-.58 32.593-29 43.809-28.42-11.216-29-41.386-29-43.809v-.159a14.045 14.045 0 0 0 14.032-14.032h29.936a14.045 14.045 0 0 0 14.032 14.032z" fill="#4370ff"/><path d="m29.944 38.41-6.796-6.796 2.829-2.829 3.967 3.968 9.626-9.626 2.828 2.828z"/><path d="m55.009 13.389-2.9 2.894a15.944 15.944 0 0 0 6.839 2.575c-.377 6.942-3.419 30.134-26.948 39.842-23.529-9.708-26.571-32.9-26.948-39.842a16.046 16.046 0 0 0 13.856-13.868h26.184a15.908 15.908 0 0 0 3.988 8.672l2.832-2.824c-3.727-4.292-2.812-8.898-2.944-9.838h-33.936c-.038.1.837 14-12.032 14h-2v2.154c0 35.722 30.927 45.746 31 45.846.142-.2 31-9.58 31-45.848v-2.152h-2a11.958 11.958 0 0 1 -5.991-1.611z"/></g></svg>