<svg height="512" viewBox="0 0 64 64" width="512" xmlns="http://www.w3.org/2000/svg"><g id="cyber_crime" data-name="cyber crime"><path d="m51.957 32.354h-39.914l10.326-22.1a2.553 2.553 0 0 1 2.352-1.254h14.558a2.553 2.553 0 0 1 2.352 1.258z" fill="#4370ff"/><path d="m53.23 30.354-9.787-20.941a4.512 4.512 0 0 0 -4.164-2.413h-14.558a4.513 4.513 0 0 0 -4.164 2.412l-7.918 16.942h4.413l7.094-15.191a.913.913 0 0 1 .575-.163h14.558a2.444 2.444 0 0 1 .54.105l9 19.249h-47.819v4h62v-4z"/><path d="m46.968 41.9a5.49 5.49 0 0 1 5.109 3.549h4.162a9.514 9.514 0 0 0 -9.271-7.549h-29.936a9.556 9.556 0 1 0 7.7 4h14.53a9.5 9.5 0 1 0 16.974 7.549h-4.159a5.5 5.5 0 1 1 -5.109-7.549zm-29.936 11.1a5.549 5.549 0 1 1 5.484-5.549 5.523 5.523 0 0 1 -5.484 5.549z"/></g></svg>