<svg height="512" viewBox="0 0 64 64" width="512" xmlns="http://www.w3.org/2000/svg"><path d="m12 12v40h40v-40zm20 28.333a8.333 8.333 0 1 1 8.333-8.333 8.333 8.333 0 0 1 -8.333 8.333z" fill="#4370ff"/><path d="m63 20.519v-19.519h-62v62h62v-38.481h-4v34.481h-54v-54h54v15.519z"/><path d="m10.004 43.481v10.515h43.992v-43.992h-43.992v29.477h4v-25.477h35.992v6.515h-4.081v4h4.081v14.962h-4.081v4h4.081v6.515h-35.992v-6.515z"/><path d="m42.333 32a10.333 10.333 0 1 0 -10.333 10.333 10.346 10.346 0 0 0 10.333-10.333zm-16.666 0a6.333 6.333 0 1 1 6.333 6.333 6.34 6.34 0 0 1 -6.333-6.333z"/></svg>