<?xml version="1.0" encoding="iso-8859-1"?>
<!-- Generator: Adobe Illustrator 19.0.0, SVG Export Plug-In . SVG Version: 6.00 Build 0)  -->
<svg version="1.1" id="Capa_1" xmlns="http://www.w3.org/2000/svg" xmlns:xlink="http://www.w3.org/1999/xlink" x="0px" y="0px"
	 viewBox="0 0 512.312 512.312" style="enable-background:new 0 0 512.312 512.312;" xml:space="preserve">
<path style="fill:#FFC107;" d="M467.356,235.277c-12.651,6.864-25.654,13.06-38.955,18.56c-7.896,3.301-16.786,3.301-24.683,0
	c-47.787-19.947-104.896-52.373-104.896-93.525v-53.333H96.156c-5.891,0.005-10.662,4.785-10.657,10.677
	c0.001,0.655,0.062,1.309,0.182,1.953l32,170.667c0.944,5.043,5.344,8.699,10.475,8.704h292.992
	c26.9,0.003,49.592-20.027,52.928-46.72c0.264-2.134-0.122-4.298-1.109-6.208L467.356,235.277z"/>
<g>
	<circle style="fill:#455A64;" cx="394.823" cy="458.979" r="53.333"/>
	<circle style="fill:#455A64;" cx="181.489" cy="458.979" r="53.333"/>
	<path style="fill:#455A64;" d="M191.281,384.312h246.208c5.891,0,10.667-4.776,10.667-10.667c0-5.891-4.776-10.667-10.667-10.667
		H191.281c-25.408-0.053-47.272-17.976-52.309-42.88L85.276,51.512c-1.014-4.967-5.384-8.534-10.453-8.533h-64
		c-5.891,0-10.667,4.776-10.667,10.667s4.776,10.667,10.667,10.667h55.253l51.989,259.968
		C125.11,359.143,155.713,384.236,191.281,384.312z"/>
</g>
<path style="fill:#2196F3;" d="M504.071,21.645L418.737,0.312c-1.696-0.416-3.467-0.416-5.163,0l-85.333,21.333
	c-4.712,1.175-8.035,5.384-8.085,10.24v128c0,32.981,70.4,64.853,91.904,73.856c2.628,1.096,5.585,1.096,8.213,0
	c21.483-8.981,91.883-40.875,91.883-73.856v-128C512.106,27.029,508.782,22.82,504.071,21.645z"/>
<g>
	<polygon style="fill:#FAFAFA;" points="416.156,43.875 362.823,54.541 362.823,117.219 416.156,117.219 	"/>
	<polygon style="fill:#FAFAFA;" points="416.156,117.219 416.156,187.704 469.489,161.699 469.489,117.219 	"/>
</g>
<g>
</g>
<g>
</g>
<g>
</g>
<g>
</g>
<g>
</g>
<g>
</g>
<g>
</g>
<g>
</g>
<g>
</g>
<g>
</g>
<g>
</g>
<g>
</g>
<g>
</g>
<g>
</g>
<g>
</g>
</svg>
