<svg height="512" viewBox="0 0 64 64" width="512" xmlns="http://www.w3.org/2000/svg"><g id="server_protection" data-name="server protection"><path d="m3 3h58v14.108h-58z" fill="#4370ff"/><path d="m3 46.892h58v14.108h-58z" fill="#4370ff" transform="matrix(-1 0 0 -1 64 107.891)"/><path d="m15.425 8.172h17.15v4h-17.15z"/><circle cx="38.575" cy="10.172" r="2"/><circle cx="46.575" cy="10.172" r="2"/><path d="m31.425 51.828h17.15v4h-17.15z"/><circle cx="25.425" cy="53.828" r="2"/><circle cx="17.425" cy="53.828" r="2"/><path d="m63 19.112v-18.102h-54v4h50v10.103h-54v-14.103h-4v18.1h14.032v15.046h8.468v1.357a8.458 8.458 0 0 0 8.449 8.447h.112a8.458 8.458 0 0 0 8.449-8.447v-1.357h4.46v10.732h-43.97v18.1h54v-4h-50v-10.1h54v14.1h4v-18.1h-14.035v-14.731h-8.46v-2.978h-11.27v-.35a2.76 2.76 0 0 1 5.037-1.591l3.293-2.27a6.761 6.761 0 0 0 -12.33 3.861v.35h-1.735v2.978h-4.468v-11.045zm-35.5 12.066h9.01v4.335a4.453 4.453 0 0 1 -4.449 4.448h-.112a4.453 4.453 0 0 1 -4.449-4.448z"/></g></svg>