<svg height="512" viewBox="0 0 64 64" width="512" xmlns="http://www.w3.org/2000/svg"><g id="siren_police" data-name="siren police"><path d="m32 13.941a14.968 14.968 0 0 0 -14.968 14.968v24.091h29.936v-24.091a14.968 14.968 0 0 0 -14.968-14.968zm6.237 22.3a6.237 6.237 0 0 1 -6.237-6.241 6.237 6.237 0 0 1 -6.237 6.237v-12.474a6.237 6.237 0 0 1 6.237 6.237 6.237 6.237 0 0 1 6.237-6.237z" fill="#4370ff"/><path d="m30 1h4v6.393h-4z"/><path d="m12.039 8.781h4v6.513h-4z" transform="matrix(.707 -.707 .707 .707 -4.4 13.453)"/><path d="m3 28h6.781v4h-6.781z"/><path d="m46.705 10.038h6.513v4h-6.513z" transform="matrix(.707 -.707 .707 .707 6.121 38.854)"/><path d="m54.219 28h6.781v4h-6.781z"/><path d="m34 51v-13.94a8.187 8.187 0 0 0 4.237 1.176h2v-16.472h-2a8.221 8.221 0 0 0 -6.237 2.862 8.22 8.22 0 0 0 -6.236-2.862h-2v16.472h2a8.186 8.186 0 0 0 4.236-1.176v13.94h-10.968v-22.092a12.968 12.968 0 0 1 25.936 0v18.092h4v-18.092a16.968 16.968 0 0 0 -33.936 0v22.092h-6.766v4h43.468v4h-43.468v4h47.468v-12zm2.237-24.734v7.468a4.235 4.235 0 0 1 0-7.468zm-8.473 7.467v-7.466a4.234 4.234 0 0 1 0 7.466z"/></g></svg>