<?xml version="1.0" encoding="iso-8859-1"?>
<!-- Generator: Adobe Illustrator 21.0.0, SVG Export Plug-In . SVG Version: 6.00 Build 0)  -->
<svg xmlns="http://www.w3.org/2000/svg" xmlns:xlink="http://www.w3.org/1999/xlink" version="1.1" id="Capa_1" x="0px" y="0px" viewBox="0 0 497.651 497.651" style="enable-background:new 0 0 497.651 497.651;" xml:space="preserve" width="512" height="512">
<g id="XMLID_10_">
	<path id="XMLID_1867_" style="fill:#FFDECF;" d="M409.755,362.766v31.498c0,57.099-46.288,103.386-103.386,103.386h0   c-34.466,0-64.989-16.868-83.774-42.796c-4.717-6.511-9.42-13.031-14.351-19.381l-91.408-117.711   c-8.716-11.224-6.683-27.389,4.541-36.106h0c11.224-8.716,27.389-6.683,36.106,4.541l45.499,58.592v-9.595V261.47v-97.208   c0-14.211,11.521-25.732,25.732-25.732h0c14.211,0,25.732,11.52,25.732,25.732v123.145v-27.452   c0-14.211,11.52-25.732,25.732-25.732h0c14.211,0,25.732,11.52,25.732,25.732v27.452V267.63c0-14.211,11.52-25.732,25.732-25.732h0   c14.211,0,25.732,11.52,25.732,25.732v19.777v-16.601c0-14.465,11.726-26.191,26.191-26.191h0   c14.465,0,26.191,11.726,26.191,26.191V362.766z"/>
	<path id="XMLID_1869_" style="fill:#0B7FB2;" d="M301.903,153.531c-8.284,0-15-6.716-15-15c0-32.271-26.254-58.525-58.525-58.525   c-32.271,0-58.525,26.254-58.525,58.525c0,8.284-6.716,15-15,15s-15-6.716-15-15c0-48.813,39.712-88.525,88.525-88.525   s88.525,39.712,88.525,88.525C316.903,146.815,310.187,153.531,301.903,153.531z"/>
	<path id="XMLID_1868_" style="fill:#0B7FB2;" d="M349.957,153.531c-8.284,0-15-6.716-15-15C334.957,78.687,286.271,30,226.426,30   S117.895,78.687,117.895,138.531c0,8.284-6.716,15-15,15s-15-6.716-15-15C87.895,62.145,150.04,0,226.426,0   s138.531,62.145,138.531,138.531C364.957,146.815,358.241,153.531,349.957,153.531z"/>
	<path id="XMLID_1945_" style="fill:#FFCDBE;" d="M383.564,244.615c-14.465,0-26.191,11.726-26.191,26.191v-3.176   c0-14.211-11.521-25.732-25.732-25.732l0,0c-14.211,0-25.732,11.52-25.732,25.732v-7.675c0-1.871-0.205-3.693-0.584-5.451v243.131   c0.348,0.003,0.694,0.016,1.043,0.016h0c57.099,0,103.386-46.288,103.386-103.386v-31.498v-91.961   C409.755,256.341,398.029,244.615,383.564,244.615z"/>
	<path id="XMLID_1275_" style="fill:#085584;" d="M228.325,0.024v30c58.971,1.018,106.632,49.297,106.632,108.507   c0,8.284,6.716,15,15,15s15-6.716,15-15C364.957,62.779,303.839,1.045,228.325,0.024z"/>
	<path id="XMLID_1289_" style="fill:#085584;" d="M228.378,50.005c-0.017,0-0.035,0.001-0.052,0.001v30.001   c0.018,0,0.035-0.001,0.052-0.001c32.271,0,58.525,26.254,58.525,58.525c0,8.284,6.716,15,15,15s15-6.716,15-15   C316.903,89.718,277.191,50.005,228.378,50.005z"/>
</g>















</svg>
