<svg height="512" viewBox="0 0 64 64" width="512" xmlns="http://www.w3.org/2000/svg"><g id="traffice_cone_security" data-name="traffice cone security"><path d="m33.715 6.624a1.871 1.871 0 0 0 -3.43 0l-6.816 16.543h17.062z" fill="#4370ff"/><path d="m16.191 40.834-7.279 17.666h46.176l-7.279-17.666z" fill="#4370ff"/><path d="m56.427 56.5-3.983-9.667h-4.326l3.982 9.667h-40.2l5.63-13.667h33.27l-15.236-36.97-.015-.036a3.869 3.869 0 0 0 -7.113.036l-7.955 19.305h18.711l5.63 13.665h-25.644l3.982-9.665h-4.326l-5.634 13.665-5.627 13.667h-4.573v4h58v-4zm-29.971-35.332 5.544-13.455 5.544 13.455z"/></g></svg>