<svg height="512" viewBox="0 0 64 64" width="512" xmlns="http://www.w3.org/2000/svg"><g id="usb_security" data-name="usb security"><path d="m47 17.032h-30v28.578a15.259 15.259 0 0 0 14.275 15.373 14.986 14.986 0 0 0 15.725-14.951zm-9.939 22.474a5.061 5.061 0 0 1 -10.122 0v-5.05h10.122z" fill="#4370ff"/><path d="m44.547 15.032v-14.032h-25.094v10.032h4v-6.032h5.531v5.847l2.032 2.026v2.159h-16.016v30.577a17.175 17.175 0 0 0 16.181 17.372 16.977 16.977 0 0 0 17.819-16.949v-31zm-11.563-10.032h7.563v10.032h-5.531v-3.819l-2.032-2.026zm12.016 41.032a12.979 12.979 0 0 1 -13.631 12.953 13.182 13.182 0 0 1 -12.369-13.376v-26.577h26z"/><path d="m37.151 31.314a5.151 5.151 0 0 0 -10.3 0v1.142h-1.913v7.05a7.062 7.062 0 0 0 14.124 0v-7.05h-1.911zm-6.3 0a1.151 1.151 0 0 1 2.3 0v1.142h-2.3zm4.213 8.192a3.062 3.062 0 0 1 -6.124 0v-3.05h6.124z"/></g></svg>