<svg height="512" viewBox="0 0 64 64" width="512" xmlns="http://www.w3.org/2000/svg"><g id="web_security" data-name="web security"><path d="m39.613 50.292a7.662 7.662 0 1 1 -7.662-7.717 7.7 7.7 0 0 1 7.662 7.717z" fill="#4370ff"/><path d="m2.951 6h58v8h-58z" fill="#4370ff"/><path d="m1 4v4h57.909v4h-57.909v39.866h21.444a9.623 9.623 0 0 0 19.015 0h21.441v-31.866h-3.991v27.866h-17.629a9.723 9.723 0 0 0 -3.507-5.3v-3.85a5.822 5.822 0 1 0 -11.644 0v3.847a9.729 9.729 0 0 0 -3.507 5.3h-17.628v-31.863h57.906v-12zm29.123 34.716a1.828 1.828 0 1 1 3.656 0v2.039a9.372 9.372 0 0 0 -3.656 0zm1.828 5.859a5.713 5.713 0 1 1 -5.651 5.717 5.692 5.692 0 0 1 5.651-5.717z"/></g></svg>