<svg id="Capa_1" data-name="Capa 1" xmlns="http://www.w3.org/2000/svg" viewBox="0 0 428.15 512"><defs><style>.cls-1{fill:#3273ea;}</style></defs><title>pix-vc</title><polygon class="cls-1" points="192.6 285.91 127.83 224.26 100.25 253.24 194.85 343.29 339 182.8 309.23 156.06 192.6 285.91"/><path class="cls-1" d="M420.5,65.19C372,56.5,327.33,30,305,15a87.62,87.62,0,0,0-98,0C184.67,30,140,56.5,91.5,65.19a60,60,0,0,0-49.58,59.1V245c0,39.88,11.16,78.75,33.16,115.54,17.21,28.78,41.06,56.29,70.89,81.76,50.15,42.83,99.8,65.16,101.89,66.09L256,512l8.13-3.62c2.09-.93,51.74-23.26,101.89-66.09,29.82-25.47,53.67-53,70.89-81.76,22-36.79,33.16-75.66,33.16-115.54V124.29A60,60,0,0,0,420.5,65.19ZM430.06,245c0,59.45-30,115.38-89.27,166.22A443.9,443.9,0,0,1,256,467.87C220.6,449.88,81.94,371.33,81.94,245V124.29a20.07,20.07,0,0,1,16.62-19.71C154.28,94.59,204.4,65,229.32,48.19a47.61,47.61,0,0,1,53.36,0c24.92,16.77,75,46.4,130.76,56.39a20.07,20.07,0,0,1,16.62,19.71Z" transform="translate(-41.93)"/></svg>